<?xml version="1.0" standalone="no"?>
<!DOCTYPE svg PUBLIC "-//W3C//DTD SVG 20010904//EN"
 "http://www.w3.org/TR/2001/REC-SVG-20010904/DTD/svg10.dtd">
<svg version="1.0" xmlns="http://www.w3.org/2000/svg"
 width="100.000000pt" height="100.000000pt" viewBox="0 0 100.000000 100.000000"
 preserveAspectRatio="xMidYMid meet">
<metadata>
Created by potrace 1.16, written by Peter Selinger 2001-2019
</metadata>
<g transform="translate(0.000000,100.000000) scale(0.100000,-0.100000)"
fill="#000000" stroke="none">
<path d="M401 706 c-74 -75 -84 -98 -49 -120 14 -9 25 -3 58 29 l40 39 0 -116
c0 -124 8 -146 50 -133 19 6 20 14 20 128 l0 121 39 -38 c43 -42 74 -43 84 -4
5 16 -10 38 -65 95 -39 40 -79 73 -87 73 -9 0 -49 -33 -90 -74z"/>
<path d="M252 468 c-16 -16 -16 -160 0 -176 9 -9 75 -12 234 -12 189 0 225 2
238 16 22 22 22 146 0 168 -35 36 -64 10 -64 -56 l0 -48 -175 0 -175 0 0 48
c0 47 -12 72 -35 72 -6 0 -16 -5 -23 -12z"/>
</g>
</svg>
